<svg width="307" height="203" viewBox="0 0 307 203" fill="none" xmlns="http://www.w3.org/2000/svg">
<path d="M20.0332 98.5039C-1.36672 55.7042 50.3855 17.7499 85.3673 56.3955C60.2533 42.4223 30.041 50.5419 37.9718 87.7408C45.1472 114.743 81.2132 126.073 71.0165 160.439C66.9348 174.196 44.1224 188.611 30.041 172.713C24.1874 166.104 24.3762 153.453 28.1528 147.221C28.1528 162.894 41.1818 172.713 50.6232 160.439C64.974 140.046 33.2511 124.94 20.0332 98.5039Z" fill="#83837F"/>
<path d="M73.8013 103.099C64.5488 90.6368 46.4214 80.629 45.4772 61.3687C33.5811 79.3072 44.3186 95.9666 60.2057 113.863C76.6336 132.368 77.9554 141.809 75.6896 161.447C94.9499 135.389 85.8262 119.296 73.8013 103.099Z" fill="#28BCBE"/>
<ellipse cx="75.1224" cy="79.232" rx="10.952" ry="10.952" fill="#28BCBE"/>
<ellipse cx="8.72095" cy="59.1577" rx="4.93976" ry="7.318" transform="rotate(-47 8.72095 59.1577)" fill="#83837F"/>
<ellipse cx="17.881" cy="39.7087" rx="7.02831" ry="10.2532" transform="rotate(-28.9548 17.881 39.7087)" fill="#83837F"/>
<ellipse cx="36.1709" cy="25.9182" rx="7.23817" ry="11.0635" transform="rotate(-14.3789 36.1709 25.9182)" fill="#83837F"/>
<ellipse cx="56.517" cy="18.01" rx="9.46832" ry="14.3216" transform="rotate(-1.87227 56.517 18.01)" fill="#83837F"/>
<ellipse cx="85.2696" cy="22.4293" rx="13.4547" ry="19.7278" transform="rotate(14.2263 85.2696 22.4293)" fill="#83837F"/>
<path d="M138.67 87.5652V100.525H131.073V63.753H145.432C148.186 63.753 150.614 64.2609 152.715 65.2765C154.816 66.2783 156.43 67.7113 157.557 69.5757C158.684 71.4261 159.247 73.5409 159.247 75.92C159.247 79.5235 158.009 82.3687 155.533 84.4557C153.07 86.5287 149.661 87.5652 145.306 87.5652H138.67ZM138.67 81.4296H145.432C147.435 81.4296 148.959 80.9565 150.002 80.0104C151.059 79.0643 151.588 77.7148 151.588 75.9617C151.588 74.167 151.059 72.713 150.002 71.6C148.945 70.487 147.477 69.9165 145.599 69.8887H138.67V81.4296ZM179.808 100.525C179.474 99.8713 179.231 99.0574 179.078 98.0835C177.311 100.045 175.015 101.026 172.191 101.026C169.506 101.026 167.28 100.254 165.513 98.7096C163.76 97.1652 162.883 95.2104 162.883 92.8452C162.883 89.9513 163.954 87.7322 166.097 86.1878C168.254 84.6296 171.363 83.8435 175.426 83.8296H178.786V82.2643C178.786 80.9983 178.459 79.9896 177.805 79.2383C177.165 78.473 176.142 78.0904 174.737 78.0904C173.513 78.0904 172.546 78.3896 171.836 78.9878C171.141 79.5722 170.793 80.3791 170.793 81.4087H163.488C163.488 79.8226 163.975 78.3548 164.949 77.0052C165.937 75.6557 167.321 74.5983 169.102 73.833C170.883 73.0678 172.887 72.6852 175.113 72.6852C178.48 72.6852 181.151 73.5339 183.127 75.2313C185.116 76.9148 186.111 79.2939 186.111 82.3687V94.2017C186.125 96.8035 186.487 98.7652 187.196 100.087V100.525H179.808ZM173.777 95.4539C174.862 95.4539 175.857 95.2174 176.761 94.7443C177.666 94.2574 178.341 93.6104 178.786 92.8035V88.087H176.052C172.393 88.087 170.445 89.353 170.208 91.8852L170.188 92.3235C170.188 93.2278 170.508 93.9791 171.148 94.5774C171.788 95.1617 172.664 95.4539 173.777 95.4539ZM207.078 80.0313C206.091 79.9061 205.214 79.8435 204.449 79.8435C201.694 79.8435 199.885 80.7757 199.023 82.64V100.525H191.718V73.1861H198.626L198.835 76.4417C200.296 73.9374 202.32 72.6852 204.908 72.6852C205.715 72.6852 206.473 72.7965 207.183 73.0191L207.078 80.0313ZM225.38 92.9704C225.38 92.08 224.934 91.3774 224.044 90.8626C223.167 90.3478 221.748 89.8887 219.786 89.4852C213.289 88.1217 210.04 85.36 210.04 81.2C210.04 78.7791 211.042 76.7548 213.046 75.127C215.063 73.4991 217.7 72.6852 220.955 72.6852C224.42 72.6852 227.188 73.5061 229.261 75.1478C231.348 76.7757 232.392 78.8974 232.392 81.513H225.087C225.087 80.4557 224.753 79.5861 224.086 78.9043C223.418 78.2226 222.367 77.8817 220.934 77.8817C219.696 77.8817 218.736 78.16 218.054 78.7165C217.386 79.273 217.053 79.9826 217.053 80.8452C217.053 81.6522 217.435 82.3061 218.2 82.807C218.98 83.3078 220.273 83.7391 222.082 84.1009C223.905 84.4626 225.442 84.8661 226.694 85.3113C230.548 86.7304 232.475 89.1861 232.475 92.6783C232.475 95.1687 231.404 97.1791 229.261 98.7096C227.119 100.254 224.357 101.026 220.976 101.026C218.68 101.026 216.642 100.616 214.861 99.7948C213.094 98.9878 211.703 97.8748 210.687 96.4557C209.686 95.0226 209.185 93.4852 209.185 91.8435H216.093C216.162 93.1374 216.642 94.1322 217.533 94.8278C218.437 95.5096 219.633 95.8504 221.122 95.8504C222.527 95.8504 223.585 95.5861 224.294 95.0574C225.018 94.5287 225.38 93.833 225.38 92.9704ZM256.748 87.5652V100.525H249.152V63.753H263.51C266.265 63.753 268.692 64.2609 270.793 65.2765C272.894 66.2783 274.508 67.7113 275.635 69.5757C276.762 71.4261 277.325 73.5409 277.325 75.92C277.325 79.5235 276.087 82.3687 273.611 84.4557C271.148 86.5287 267.739 87.5652 263.385 87.5652H256.748ZM256.748 81.4296H263.51C265.513 81.4296 267.037 80.9565 268.08 80.0104C269.138 79.0643 269.666 77.7148 269.666 75.9617C269.666 74.167 269.138 72.713 268.08 71.6C267.023 70.487 265.555 69.9165 263.677 69.8887H256.748V81.4296ZM297.887 100.525C297.553 99.8713 297.309 99.0574 297.156 98.0835C295.389 100.045 293.093 101.026 290.269 101.026C287.584 101.026 285.358 100.254 283.591 98.7096C281.838 97.1652 280.961 95.2104 280.961 92.8452C280.961 89.9513 282.033 87.7322 284.175 86.1878C286.332 84.6296 289.441 83.8435 293.504 83.8296H296.864V82.2643C296.864 80.9983 296.537 79.9896 295.883 79.2383C295.243 78.473 294.22 78.0904 292.815 78.0904C291.591 78.0904 290.624 78.3896 289.914 78.9878C289.219 79.5722 288.871 80.3791 288.871 81.4087H281.567C281.567 79.8226 282.053 78.3548 283.027 77.0052C284.015 75.6557 285.4 74.5983 287.18 73.833C288.961 73.0678 290.965 72.6852 293.191 72.6852C296.558 72.6852 299.229 73.5339 301.205 75.2313C303.194 76.9148 304.189 79.2939 304.189 82.3687V94.2017C304.203 96.8035 304.565 98.7652 305.274 100.087V100.525H297.887ZM291.855 95.4539C292.94 95.4539 293.935 95.2174 294.84 94.7443C295.744 94.2574 296.419 93.6104 296.864 92.8035V88.087H294.13C290.471 88.087 288.523 89.353 288.287 91.8852L288.266 92.3235C288.266 93.2278 288.586 93.9791 289.226 94.5774C289.866 95.1617 290.742 95.4539 291.855 95.4539Z" fill="#28BCBE"/>
<path d="M174.786 127.12C174.786 127.56 174.653 127.913 174.386 128.18C174.119 128.447 173.753 128.58 173.286 128.58C172.833 128.58 172.413 128.453 172.026 128.2C172.119 127.973 172.166 127.733 172.166 127.48C172.166 127.067 171.946 126.7 171.506 126.38C171.066 126.047 170.446 125.88 169.646 125.88C168.859 125.88 168.213 126.04 167.706 126.36C167.213 126.667 166.966 127.08 166.966 127.6C166.966 128.12 167.246 128.593 167.806 129.02C168.379 129.433 169.066 129.813 169.866 130.16C170.666 130.507 171.466 130.88 172.266 131.28C173.079 131.667 173.766 132.173 174.326 132.8C174.899 133.413 175.186 134.113 175.186 134.9C175.186 136.153 174.633 137.187 173.526 138C172.433 138.8 171.106 139.2 169.546 139.2C167.999 139.2 166.699 138.893 165.646 138.28C164.593 137.653 164.066 136.853 164.066 135.88C164.066 135.373 164.233 134.967 164.566 134.66C164.899 134.353 165.319 134.2 165.826 134.2C166.333 134.2 166.786 134.387 167.186 134.76C166.866 135.08 166.706 135.46 166.706 135.9C166.706 136.34 166.959 136.72 167.466 137.04C167.986 137.36 168.686 137.52 169.566 137.52C170.459 137.52 171.186 137.32 171.746 136.92C172.319 136.52 172.606 136.027 172.606 135.44C172.606 134.853 172.319 134.347 171.746 133.92C171.186 133.48 170.506 133.093 169.706 132.76C168.906 132.413 168.099 132.053 167.286 131.68C166.486 131.307 165.799 130.827 165.226 130.24C164.666 129.64 164.386 128.953 164.386 128.18C164.386 126.98 164.899 126.02 165.926 125.3C166.966 124.567 168.233 124.2 169.726 124.2C171.219 124.2 172.433 124.48 173.366 125.04C174.313 125.587 174.786 126.28 174.786 127.12ZM180.5 130.34V136.08C180.5 136.533 180.58 136.867 180.74 137.08C180.913 137.28 181.193 137.38 181.58 137.38C182.366 137.38 183.073 137.047 183.7 136.38C183.846 136.393 183.973 136.467 184.08 136.6C184.186 136.733 184.24 136.907 184.24 137.12C184.24 137.64 183.92 138.12 183.28 138.56C182.653 138.987 181.873 139.2 180.94 139.2C180.006 139.2 179.266 138.967 178.72 138.5C178.186 138.02 177.92 137.3 177.92 136.34V130.34C177.4 130.327 177.013 130.22 176.76 130.02C176.52 129.82 176.4 129.573 176.4 129.28C176.4 128.987 176.52 128.753 176.76 128.58C177.16 128.633 177.506 128.66 177.8 128.66H177.92V127.68C177.92 127.093 177.713 126.7 177.3 126.5C177.713 125.993 178.22 125.74 178.82 125.74C179.94 125.74 180.5 126.407 180.5 127.74V128.66H183.64C183.72 128.78 183.76 128.907 183.76 129.04C183.76 129.4 183.526 129.707 183.06 129.96C182.606 130.213 181.82 130.34 180.7 130.34H180.5ZM190.918 132.56C191.185 132.533 191.378 132.453 191.498 132.32C191.618 132.187 191.678 131.92 191.678 131.52C191.678 131.12 191.551 130.753 191.298 130.42C191.045 130.087 190.685 129.92 190.218 129.92C189.765 129.92 189.345 130.173 188.958 130.68C188.585 131.173 188.338 131.887 188.218 132.82L190.918 132.56ZM190.918 137.34C192.011 137.34 192.931 136.947 193.678 136.16C193.931 136.293 194.058 136.533 194.058 136.88C194.058 137.44 193.698 137.967 192.978 138.46C192.271 138.953 191.431 139.2 190.458 139.2C188.951 139.2 187.758 138.767 186.878 137.9C185.998 137.033 185.558 135.8 185.558 134.2C185.558 132.6 186.038 131.247 186.998 130.14C187.971 129.02 189.158 128.46 190.558 128.46C191.638 128.46 192.525 128.82 193.218 129.54C193.925 130.247 194.278 131.06 194.278 131.98C194.278 132.673 194.105 133.18 193.758 133.5C193.411 133.807 192.831 133.967 192.018 133.98L188.158 134.1C188.211 136.26 189.131 137.34 190.918 137.34ZM201.27 137.56C201.91 137.56 202.463 137.22 202.93 136.54C203.41 135.847 203.65 134.947 203.65 133.84C203.65 132.72 203.417 131.853 202.95 131.24C202.483 130.613 201.923 130.3 201.27 130.3C200.337 130.3 199.63 130.78 199.15 131.74V136.46C199.683 137.193 200.39 137.56 201.27 137.56ZM196.57 142.2V130.4C196.57 129.813 196.37 129.42 195.97 129.22C196.357 128.713 196.863 128.46 197.49 128.46C198.437 128.46 198.977 128.933 199.11 129.88C199.83 128.933 200.79 128.46 201.99 128.46C203.19 128.46 204.197 128.927 205.01 129.86C205.837 130.793 206.25 132.107 206.25 133.8C206.25 135.493 205.777 136.82 204.83 137.78C203.897 138.727 202.817 139.2 201.59 139.2C200.67 139.2 199.857 138.907 199.15 138.32V142.26C199.15 142.833 199.35 143.22 199.75 143.42C199.337 143.953 198.823 144.22 198.21 144.22C197.117 144.22 196.57 143.547 196.57 142.2ZM217.149 126.22V137.26C217.149 137.847 217.349 138.233 217.749 138.42C217.335 138.94 216.822 139.2 216.209 139.2C215.115 139.2 214.569 138.533 214.569 137.2V126.16C214.569 125.573 214.369 125.193 213.969 125.02C214.355 124.5 214.862 124.24 215.489 124.24C216.595 124.24 217.149 124.9 217.149 126.22ZM230.106 132V137.26C230.106 137.833 230.306 138.22 230.706 138.42C230.292 138.94 229.779 139.2 229.166 139.2C228.072 139.2 227.526 138.533 227.526 137.2V132.32C227.526 131.147 227.019 130.56 226.006 130.56C225.486 130.56 224.986 130.787 224.506 131.24C224.026 131.693 223.692 132.327 223.506 133.14V137.26C223.506 137.833 223.706 138.22 224.106 138.42C223.692 138.94 223.179 139.2 222.566 139.2C221.472 139.2 220.926 138.533 220.926 137.2V130.4C220.926 129.813 220.726 129.42 220.326 129.22C220.712 128.713 221.219 128.46 221.846 128.46C222.952 128.46 223.506 129.127 223.506 130.46V130.68C223.852 129.987 224.346 129.447 224.986 129.06C225.626 128.66 226.366 128.46 227.206 128.46C228.059 128.46 228.752 128.76 229.286 129.36C229.832 129.96 230.106 130.84 230.106 132ZM235.988 130.34V136.08C235.988 136.533 236.068 136.867 236.228 137.08C236.401 137.28 236.681 137.38 237.068 137.38C237.855 137.38 238.561 137.047 239.188 136.38C239.335 136.393 239.461 136.467 239.568 136.6C239.675 136.733 239.728 136.907 239.728 137.12C239.728 137.64 239.408 138.12 238.768 138.56C238.141 138.987 237.361 139.2 236.428 139.2C235.495 139.2 234.755 138.967 234.208 138.5C233.675 138.02 233.408 137.3 233.408 136.34V130.34C232.888 130.327 232.501 130.22 232.248 130.02C232.008 129.82 231.888 129.573 231.888 129.28C231.888 128.987 232.008 128.753 232.248 128.58C232.648 128.633 232.995 128.66 233.288 128.66H233.408V127.68C233.408 127.093 233.201 126.7 232.788 126.5C233.201 125.993 233.708 125.74 234.308 125.74C235.428 125.74 235.988 126.407 235.988 127.74V128.66H239.128C239.208 128.78 239.248 128.907 239.248 129.04C239.248 129.4 239.015 129.707 238.548 129.96C238.095 130.213 237.308 130.34 236.188 130.34H235.988ZM245.826 129.82C244.373 129.82 243.646 130.94 243.646 133.18C243.646 133.38 243.653 133.593 243.666 133.82C243.813 136.5 244.68 137.84 246.266 137.84C247.693 137.84 248.406 136.733 248.406 134.52C248.406 134.307 248.4 134.073 248.386 133.82C248.24 131.153 247.386 129.82 245.826 129.82ZM241.046 133.82C241.046 132.1 241.513 130.78 242.446 129.86C243.38 128.927 244.573 128.46 246.026 128.46C247.493 128.46 248.693 128.927 249.626 129.86C250.56 130.793 251.026 132.12 251.026 133.84C251.026 135.547 250.56 136.867 249.626 137.8C248.693 138.733 247.5 139.2 246.046 139.2C244.593 139.2 243.393 138.733 242.446 137.8C241.513 136.867 241.046 135.54 241.046 133.82Z" fill="#83837F"/>
<path d="M180.224 158.02C180.224 158.62 180.011 159.067 179.584 159.36C179.158 159.64 178.644 159.78 178.044 159.78C177.444 159.78 176.918 159.64 176.464 159.36C176.518 159.093 176.544 158.793 176.544 158.46C176.544 158.113 176.451 157.793 176.264 157.5C175.971 157.06 175.498 156.84 174.844 156.84C173.884 156.84 173.064 157.34 172.384 158.34C171.704 159.327 171.364 160.707 171.364 162.48C171.364 164.24 171.731 165.5 172.464 166.26C173.211 167.02 174.238 167.4 175.544 167.4C176.344 167.4 177.104 167.213 177.824 166.84C178.558 166.453 179.138 166 179.564 165.48C180.031 165.68 180.264 166.093 180.264 166.72C180.264 167.533 179.718 168.32 178.624 169.08C177.531 169.84 176.231 170.22 174.724 170.22C172.618 170.22 170.978 169.573 169.804 168.28C168.644 166.973 168.064 165.147 168.064 162.8C168.064 160.453 168.698 158.58 169.964 157.18C171.231 155.78 172.951 155.08 175.124 155.08C176.524 155.08 177.724 155.367 178.724 155.94C179.724 156.5 180.224 157.193 180.224 158.02ZM187.43 160.84C186.283 160.84 185.71 161.84 185.71 163.84C185.71 164.133 185.723 164.44 185.75 164.76C185.91 167.387 186.643 168.7 187.95 168.7C189.097 168.7 189.67 167.693 189.67 165.68C189.67 165.4 189.657 165.093 189.63 164.76C189.443 162.147 188.71 160.84 187.43 160.84ZM183.97 160.74C184.917 159.793 186.157 159.32 187.69 159.32C189.223 159.32 190.463 159.793 191.41 160.74C192.357 161.673 192.83 163.013 192.83 164.76C192.83 166.507 192.35 167.853 191.39 168.8C190.443 169.747 189.203 170.22 187.67 170.22C186.15 170.22 184.917 169.747 183.97 168.8C183.023 167.853 182.55 166.507 182.55 164.76C182.55 163.013 183.023 161.673 183.97 160.74ZM211.657 162.92V167.94C211.657 168.66 211.87 169.133 212.297 169.36C211.817 169.933 211.21 170.22 210.477 170.22C209.17 170.22 208.517 169.427 208.517 167.84V163.38C208.517 162.9 208.397 162.527 208.157 162.26C207.93 161.98 207.604 161.84 207.177 161.84C206.75 161.84 206.337 162.033 205.937 162.42C205.537 162.793 205.25 163.353 205.077 164.1V167.94C205.077 168.66 205.29 169.133 205.717 169.36C205.237 169.933 204.63 170.22 203.897 170.22C202.59 170.22 201.937 169.427 201.937 167.84V163.38C201.937 162.9 201.817 162.527 201.577 162.26C201.35 161.98 201.024 161.84 200.597 161.84C200.17 161.84 199.757 162.04 199.357 162.44C198.957 162.827 198.67 163.407 198.497 164.18V167.94C198.497 168.66 198.717 169.133 199.157 169.36C198.65 169.933 198.037 170.22 197.317 170.22C196.01 170.22 195.357 169.427 195.357 167.84V161.58C195.357 160.887 195.13 160.42 194.677 160.18C195.184 159.607 195.777 159.32 196.457 159.32C197.137 159.32 197.637 159.493 197.957 159.84C198.277 160.173 198.457 160.693 198.497 161.4C198.857 160.72 199.35 160.207 199.977 159.86C200.617 159.5 201.304 159.32 202.037 159.32C202.784 159.32 203.41 159.52 203.917 159.92C204.424 160.32 204.764 160.9 204.937 161.66C205.284 160.9 205.79 160.32 206.457 159.92C207.124 159.52 207.884 159.32 208.737 159.32C209.59 159.32 210.29 159.627 210.837 160.24C211.384 160.853 211.657 161.747 211.657 162.92ZM215.334 160.3V157.8C215.334 156.72 215.66 155.873 216.314 155.26C216.98 154.633 217.854 154.32 218.934 154.32C219.72 154.32 220.347 154.507 220.814 154.88C221.294 155.253 221.534 155.693 221.534 156.2C221.534 156.707 221.327 157 220.914 157.08C220.5 156.627 220.054 156.4 219.574 156.4C218.84 156.4 218.474 156.893 218.474 157.88V160.3H220.914C221.007 160.407 221.054 160.547 221.054 160.72C221.054 161.107 220.867 161.453 220.494 161.76C220.134 162.067 219.574 162.22 218.814 162.22H218.474V171.8C218.474 173.013 218.207 173.907 217.674 174.48C217.154 175.067 216.474 175.36 215.634 175.36C214.354 175.36 213.547 174.76 213.214 173.56C214.04 173.56 214.6 173.387 214.894 173.04C215.187 172.693 215.334 172.107 215.334 171.28V162.2C214.174 162.12 213.594 161.767 213.594 161.14C213.594 160.753 213.74 160.46 214.034 160.26C214.594 160.287 215.027 160.3 215.334 160.3ZM227.098 160.84C225.951 160.84 225.378 161.84 225.378 163.84C225.378 164.133 225.391 164.44 225.418 164.76C225.578 167.387 226.311 168.7 227.618 168.7C228.764 168.7 229.338 167.693 229.338 165.68C229.338 165.4 229.324 165.093 229.298 164.76C229.111 162.147 228.378 160.84 227.098 160.84ZM223.638 160.74C224.584 159.793 225.824 159.32 227.358 159.32C228.891 159.32 230.131 159.793 231.078 160.74C232.024 161.673 232.498 163.013 232.498 164.76C232.498 166.507 232.018 167.853 231.058 168.8C230.111 169.747 228.871 170.22 227.338 170.22C225.818 170.22 224.584 169.747 223.638 168.8C222.691 167.853 222.218 166.507 222.218 164.76C222.218 163.013 222.691 161.673 223.638 160.74ZM235.025 167.84V161.58C235.025 160.887 234.798 160.42 234.345 160.18C234.852 159.607 235.465 159.32 236.185 159.32C237.372 159.32 238.025 159.96 238.145 161.24C238.678 159.96 239.565 159.32 240.805 159.32C241.432 159.32 241.945 159.507 242.345 159.88C242.758 160.253 242.965 160.753 242.965 161.38C242.965 162.007 242.805 162.507 242.485 162.88C242.178 163.24 241.705 163.42 241.065 163.42C240.985 163.42 240.812 163.407 240.545 163.38C240.598 163.14 240.625 162.987 240.625 162.92C240.625 162.587 240.525 162.327 240.325 162.14C240.138 161.94 239.905 161.84 239.625 161.84C238.905 161.84 238.418 162.387 238.165 163.48V167.94C238.165 168.66 238.385 169.133 238.825 169.36C238.318 169.933 237.705 170.22 236.985 170.22C235.678 170.22 235.025 169.427 235.025 167.84ZM248.128 161.46V166.86C248.128 167.7 248.455 168.12 249.108 168.12C249.828 168.12 250.495 167.793 251.108 167.14C251.295 167.14 251.448 167.22 251.568 167.38C251.701 167.527 251.768 167.727 251.768 167.98C251.768 168.527 251.435 169.04 250.768 169.52C250.101 169.987 249.275 170.22 248.288 170.22C247.315 170.22 246.521 169.973 245.908 169.48C245.295 168.987 244.988 168.233 244.988 167.22V161.46C244.508 161.447 244.148 161.333 243.908 161.12C243.668 160.893 243.548 160.613 243.548 160.28C243.548 159.947 243.688 159.68 243.968 159.48C244.288 159.52 244.628 159.54 244.988 159.54V158.94C244.988 158.247 244.761 157.78 244.308 157.54C244.815 156.967 245.415 156.68 246.108 156.68C246.815 156.68 247.328 156.873 247.648 157.26C247.968 157.647 248.128 158.247 248.128 159.06V159.54H251.148C251.241 159.647 251.288 159.78 251.288 159.94C251.288 160.353 251.061 160.713 250.608 161.02C250.168 161.313 249.395 161.46 248.288 161.46H248.128Z" fill="#28BCBE"/>
</svg>
