<svg width="120" height="120" viewBox="0 0 120 120" fill="none" xmlns="http://www.w3.org/2000/svg">
<path d="M59.9995 119.5C92.8612 119.5 119.5 92.8605 119.5 60C119.5 27.1397 92.8612 0.5 59.9995 0.5C27.1388 0.5 0.5 27.1397 0.5 60C0.5 92.8605 27.1388 119.5 59.9995 119.5Z" fill="white" stroke="#28BCBE"/>
<path d="M73.351 86.3081H46.897V56.429H73.351V86.3081Z" fill="#FF9295"/>
<path d="M102.856 88.985C88.7384 82.6862 73.3496 80.4531 73.3496 80.4531C66.2884 87.815 53.1371 87.9193 46.8964 80.4531C46.8964 80.4531 31.5085 82.6862 17.3906 88.985C26.1653 103.392 42.02 113.013 60.123 113.013C78.226 113.013 94.0807 103.392 102.856 88.985Z" fill="#28BCBE"/>
<path d="M59.7483 89.3999C59.665 89.3999 59.5817 89.3999 59.4975 89.3992C52.6638 89.3265 46.8997 86.3142 43.6831 81.135L44.2537 80.7802C47.3467 85.7606 52.9057 88.6564 59.5055 88.7274C59.5861 88.7281 59.6677 88.7281 59.7492 88.7281C66.5523 88.7281 72.7428 85.6941 75.9442 80.7739L76.5077 81.1402C73.1826 86.2498 66.7772 89.3999 59.7483 89.3999Z" fill="#24293D"/>
<path d="M85.1335 39.9564C85.1335 53.7696 77.5474 71.7058 60.7567 71.3689C42.6976 71.3689 35.838 55.441 35.838 41.6278C32.676 32.6499 36.4758 22.9078 43.055 21.1145C47.1736 14.246 54.3244 12.0371 61.5082 12.0371C75.3215 12.0371 88.9511 22.1912 85.1335 39.9564Z" fill="#4A1D48"/>
<path d="M85.0948 41.8864C83.6884 38.5238 80.8149 40.1746 80.8149 40.1746C81.4133 26.9956 74.6997 17.8537 60.1232 17.8537C45.5468 17.8537 38.9147 28.8238 39.4324 40.1746C39.4324 40.1746 36.558 38.5238 35.1517 41.8864C33.7453 45.2499 36.3134 53.1377 37.9034 55.6449C39.4933 58.1512 41.902 57.0917 41.902 57.0917C41.902 57.0917 42.4896 62.8601 43.2232 64.8164C43.9568 66.7736 52.2729 75.7703 54.7183 77.146C57.926 79.0327 62.6492 79.0327 65.5281 77.146C67.9735 75.7703 76.2896 66.7736 77.0232 64.8164C77.7577 62.8601 78.3328 56.9895 78.3328 56.9895C78.3328 56.9895 80.7531 58.1512 82.3431 55.6449C83.933 53.1377 86.5011 45.2499 85.0948 41.8864Z" fill="#FF9295"/>
<path d="M60.2449 77.5894C54.3079 77.5894 49.9125 73.4753 47.124 70.3805L47.623 69.9308C50.3263 72.9295 54.5757 76.9176 60.2449 76.9176C65.6014 76.9176 69.5078 73.3857 72.6223 69.9308L73.1203 70.3805C69.9082 73.9456 65.8648 77.5894 60.2449 77.5894Z" fill="#D34B5B"/>
<path d="M41.5676 57.1294L41.1636 53.5267L41.8318 53.4515L42.2358 57.0542L41.5676 57.1294Z" fill="#D34B5B"/>
<path d="M78.6668 57.0244L77.9985 56.9544L78.3649 53.4538L79.0331 53.5237L78.6668 57.0244Z" fill="#D34B5B"/>
<path d="M37.017 49.4502C36.8799 48.954 35.7334 44.5648 37.3215 43.3619C37.8482 43.017 38.2809 43.0528 38.5532 43.1415C39.3629 43.4049 39.766 44.4054 39.8099 44.5183L39.1829 44.7592C39.0951 44.5335 38.7744 43.919 38.3436 43.7802C38.1501 43.7175 37.9405 43.7587 37.7067 43.9109C36.8029 44.598 37.1979 47.5665 37.6637 49.2728L37.017 49.4502Z" fill="#D34B5B"/>
<path d="M83.2289 49.4502L82.5813 49.2728C83.047 47.5665 83.443 44.598 82.5186 43.8975C82.3063 43.7605 82.0985 43.7175 81.9014 43.7802C81.4714 43.919 81.1499 44.5335 81.063 44.7592L80.4351 44.5183C80.479 44.4054 80.882 43.4049 81.6927 43.1415C81.9641 43.0537 82.3976 43.017 82.9037 43.3475C84.5116 44.5648 83.365 48.954 83.2289 49.4502Z" fill="#D34B5B"/>
<path d="M39.4321 40.1748C40.6763 35.8771 42.5824 32.132 45.5751 29.2988C53.9853 39.099 64.3544 45.4847 80.8146 40.1748L82.083 36.0007C82.083 36.0007 80.098 27.149 80.098 26.8328C80.098 26.5166 73.5859 20.4462 73.5859 20.4462L65.1131 16.9689H56.3877L49.4322 18.9288L43.299 24.1142L39.4321 31.891V40.1748Z" fill="#4A1D48"/>
</svg>
