<svg width="20" height="19" viewBox="0 0 20 19" fill="none" xmlns="http://www.w3.org/2000/svg">
<path d="M12.6802 5.73236H14.5866C16.1163 5.73236 17.3563 4.49812 17.3563 2.97561V1.07812" stroke="#28BCBE" stroke-width="2" stroke-linecap="round" stroke-linejoin="round"/>
<path d="M18.08 9.49997C18.08 11.5078 17.3659 13.4508 16.0642 14.9846C14.7626 16.5185 12.9574 17.5443 10.9686 17.8802C8.9797 18.2161 6.93562 17.8403 5.19847 16.8196C3.46134 15.7989 2.14329 14.199 1.47793 12.3036C0.812553 10.4082 0.842789 8.33947 1.56327 6.46411C2.28376 4.58872 3.648 3.02773 5.41423 2.05775C7.18046 1.08777 9.23468 0.771388 11.2129 1.16468C13.1911 1.55798 14.9655 2.63557 16.2218 4.20649" stroke="#28BCBE" stroke-width="2" stroke-linecap="round"/>
</svg>
