<svg width="34" height="34" viewBox="0 0 34 34" fill="none" xmlns="http://www.w3.org/2000/svg">
<path d="M25.7692 25.1458H10.6817C9.2792 25.1458 7.93336 24.5509 6.9842 23.5167C6.03503 22.4825 5.55337 21.0942 5.66671 19.6917L6.84254 5.58168C6.88504 5.14251 6.7292 4.71752 6.4317 4.39169C6.1342 4.06585 5.72337 3.89584 5.2842 3.89584H2.83337C2.25254 3.89584 1.77087 3.41418 1.77087 2.83334C1.77087 2.25251 2.25254 1.77084 2.83337 1.77084H5.29838C6.33255 1.77084 7.31003 2.21001 8.0042 2.96084C8.3867 3.38584 8.67003 3.88168 8.82587 4.43418H26.52C27.9509 4.43418 29.2684 5.00084 30.2317 6.02084C31.1809 7.05501 31.6625 8.40085 31.5492 9.83168L30.7842 20.4567C30.6284 23.0492 28.3617 25.1458 25.7692 25.1458ZM8.89671 6.545L7.79171 19.8617C7.72087 20.6833 7.99004 21.4625 8.54254 22.0717C9.09504 22.6808 9.86003 23.0067 10.6817 23.0067H25.7692C27.2425 23.0067 28.5742 21.76 28.6875 20.2867L29.4525 9.66169C29.5092 8.82585 29.24 8.03252 28.6875 7.45169C28.135 6.85669 27.37 6.53082 26.5342 6.53082H8.89671V6.545Z" fill="#4A4747"/>
<path d="M23.0208 32.2292C21.4625 32.2292 20.1875 30.9542 20.1875 29.3958C20.1875 27.8375 21.4625 26.5625 23.0208 26.5625C24.5792 26.5625 25.8542 27.8375 25.8542 29.3958C25.8542 30.9542 24.5792 32.2292 23.0208 32.2292ZM23.0208 28.6875C22.6242 28.6875 22.3125 28.9992 22.3125 29.3958C22.3125 29.7925 22.6242 30.1042 23.0208 30.1042C23.4175 30.1042 23.7292 29.7925 23.7292 29.3958C23.7292 28.9992 23.4175 28.6875 23.0208 28.6875Z" fill="#4A4747"/>
<path d="M11.6875 32.2292C10.1291 32.2292 8.85413 30.9542 8.85413 29.3958C8.85413 27.8375 10.1291 26.5625 11.6875 26.5625C13.2458 26.5625 14.5208 27.8375 14.5208 29.3958C14.5208 30.9542 13.2458 32.2292 11.6875 32.2292ZM11.6875 28.6875C11.2908 28.6875 10.9791 28.9992 10.9791 29.3958C10.9791 29.7925 11.2908 30.1042 11.6875 30.1042C12.0841 30.1042 12.3958 29.7925 12.3958 29.3958C12.3958 28.9992 12.0841 28.6875 11.6875 28.6875Z" fill="#4A4747"/>
<path d="M29.75 12.3958H12.75C12.1692 12.3958 11.6875 11.9142 11.6875 11.3333C11.6875 10.7525 12.1692 10.2708 12.75 10.2708H29.75C30.3308 10.2708 30.8125 10.7525 30.8125 11.3333C30.8125 11.9142 30.3308 12.3958 29.75 12.3958Z" fill="#4A4747"/>
</svg>
