<svg width="495" height="355" viewBox="0 0 495 355" fill="none" xmlns="http://www.w3.org/2000/svg">
<g filter="url(#filter0_d_362_8125)">
<path d="M364.819 295.471C369.679 298.281 379.239 297.311 386.169 293.311L426.109 270.121C433.039 266.121 434.699 260.601 429.829 257.781C424.959 254.971 415.389 255.931 408.459 259.931L368.559 283.131C361.629 287.141 359.959 292.661 364.819 295.471Z" fill="#EBEBEB"/>
<path d="M124.399 316.861L83.7793 293.411L124.399 269.961V316.861Z" fill="#EBEBEB"/>
<path d="M239.209 330.89L173.739 293.07L239.219 255.32L239.209 330.89Z" fill="#EBEBEB"/>
</g>
<g filter="url(#filter1_d_362_8125)">
<path d="M69.4493 262.03C69.5593 252.53 62.9293 232.77 53.2193 220.31C43.5093 207.85 28.1193 198.65 17.0593 202.28C6.75929 205.66 7.70929 219.13 20.0493 228.2C32.3893 237.27 50.9593 248.69 56.2393 264.17L67.4893 283.22L69.4493 262.03Z" fill="#3CA0AE"/>
<path opacity="0.1" d="M69.4493 262.03C69.5593 252.53 62.9293 232.77 53.2193 220.31C43.5093 207.85 28.1193 198.65 17.0593 202.28C6.75929 205.66 7.70929 219.13 20.0493 228.2C32.3893 237.27 50.9593 248.69 56.2393 264.17L67.4893 283.22L69.4493 262.03Z" fill="black"/>
<path d="M69.9994 275.039C69.6994 275.009 69.4394 274.789 69.3794 274.469C63.4094 241.959 37.4894 215.279 21.8494 209.269C21.4894 209.129 21.3094 208.729 21.4494 208.369C21.5894 208.009 21.9794 207.829 22.3494 207.969C38.2794 214.099 64.6794 241.209 70.7394 274.219C70.8094 274.599 70.5594 274.959 70.1794 275.029C70.1194 275.039 70.0594 275.039 69.9994 275.039Z" fill="white"/>
<path d="M64.9095 295.74C63.4495 290.38 57.0295 281.49 46.5695 274.08C34.9895 265.89 20.2695 262.01 16.9395 255.7C12.9395 248.12 19.3695 241.08 31.3395 242.71C43.3095 244.34 64.1895 260.95 67.2695 285.62L64.9095 295.74Z" fill="#3CA0AE"/>
<path d="M67.2994 290.16C67.0394 290.14 66.7994 289.96 66.7094 289.69C57.0994 261.79 36.0194 251.78 26.2094 250.39C25.8294 250.34 25.5694 249.98 25.6194 249.61C25.6694 249.23 26.0094 248.97 26.3994 249.02C37.2394 250.56 58.1994 260.76 68.0194 289.25C68.1394 289.61 67.9494 290.01 67.5894 290.13C67.4894 290.16 67.3894 290.17 67.2994 290.16Z" fill="white"/>
<path d="M424.019 234.98C424.019 234.98 425.349 214.95 437.159 200.08C448.959 185.21 448.239 179.09 440.099 176.09C431.959 173.09 413.049 191.01 417.259 215.01C421.469 239.01 424.019 234.98 424.019 234.98Z" fill="#3CA0AE"/>
<path opacity="0.1" d="M424.019 234.98C424.019 234.98 425.349 214.95 437.159 200.08C448.959 185.21 448.239 179.09 440.099 176.09C431.959 173.09 413.049 191.01 417.259 215.01C421.469 239.01 424.019 234.98 424.019 234.98Z" fill="black"/>
<path d="M420.409 223.54C420.169 223.54 419.959 223.35 419.949 223.1C418.569 201.04 434.149 182.94 439.979 178.85C440.189 178.7 440.479 178.75 440.629 178.96C440.779 179.17 440.729 179.46 440.519 179.61C434.799 183.63 419.529 201.38 420.879 223.05C420.899 223.31 420.699 223.53 420.449 223.54C420.429 223.54 420.419 223.54 420.409 223.54Z" fill="white"/>
<path d="M420.809 251.52C420.809 251.52 427.919 253.99 437.069 255.43C446.209 256.88 450.249 252.51 450.249 252.51C450.249 252.51 446.649 243.94 441.459 241.53C441.459 241.53 450.259 243.32 457.329 248.04C457.329 248.04 462.909 248.12 465.129 239.61C465.129 239.61 461.819 234.48 450.729 231.71C450.729 231.71 457.479 230.01 467.209 232.49C467.939 232.78 471.049 221.76 471.989 216.68C472.929 211.6 470.889 211.65 466.929 210.59C462.969 209.53 449.849 206.59 447.369 208.76C444.889 210.94 443.629 218.39 443.629 218.39C443.629 218.39 441.999 213.99 443.259 208.95C443.259 208.95 439.689 207.56 434.159 209.17C429.629 210.49 429.409 213.57 429.619 217.05C429.769 219.59 430.379 222.3 431.579 225.89C431.579 225.89 428.049 221.37 427.939 211.57C427.939 211.57 418.679 216.17 417.099 225.36C416.219 230.33 414.999 244.92 420.809 251.52Z" fill="#3CA0AE"/>
<path d="M422.549 249.739C422.739 249.739 422.919 249.629 423.009 249.449C430.389 234.119 457.809 216.319 467.639 214.409C467.919 214.359 468.099 214.089 468.049 213.809C467.999 213.529 467.719 213.349 467.449 213.399C457.459 215.339 429.589 233.439 422.099 249.009C421.979 249.269 422.079 249.569 422.339 249.699C422.399 249.719 422.479 249.739 422.549 249.739Z" fill="white"/>
</g>
<path d="M65.8691 302.82C64.7391 302.82 64.0591 301.88 64.0591 300.31V132.11L270.049 13.1797V180.71C270.049 183.28 268.239 186.42 266.009 187.7L67.5091 302.31C66.9291 302.65 66.3591 302.82 65.8691 302.82Z" fill="#FAFAFA"/>
<path d="M269.469 14.1902V180.71C269.469 183.05 267.749 186.02 265.719 187.2L67.2192 301.8C66.7292 302.08 66.2592 302.23 65.8692 302.23C64.7592 302.23 64.6392 300.89 64.6392 300.31V132.45L269.469 14.1902ZM270.639 12.1602L63.4692 131.77V300.32C63.4692 302.28 64.4492 303.41 65.8692 303.41C66.4492 303.41 67.1092 303.22 67.7992 302.82L266.299 188.21C268.689 186.83 270.629 183.47 270.629 180.71L270.639 12.1602Z" fill="#E0E0E0"/>
<path d="M63.4692 131.77V159.92L270.639 40.3102V12.1602L63.4692 131.77Z" fill="#3CA0AE"/>
<path d="M79.7192 133.27V137.31C79.7192 138.13 80.2992 138.47 81.0192 138.06L144.709 101.29V94.25L81.0192 131.02C80.3092 131.44 79.7192 132.45 79.7192 133.27Z" fill="#FAFAFA"/>
<path d="M151.539 90.3106C152.259 89.9006 152.839 90.2306 152.839 91.0606V95.1006C152.839 95.9306 152.259 96.9406 151.539 97.3506L144.709 101.291V94.2506L151.539 90.3106Z" fill="#455A64"/>
<path d="M63.4692 122.701C63.4692 119.941 65.4092 116.581 67.7992 115.201L266.299 0.590826C268.689 -0.789174 270.629 0.330826 270.629 3.09083V12.1608L63.4692 131.771V122.701Z" fill="#455A64"/>
<path d="M205.639 58.6317C203.189 60.0517 201.199 63.4917 201.199 66.3217C201.199 69.1517 203.189 70.3017 205.639 68.8817C208.089 67.4617 210.079 64.0217 210.079 61.1917C210.079 58.3617 208.099 57.2217 205.639 58.6317Z" fill="black"/>
<path d="M185.339 70.3621C182.889 71.7821 180.899 75.2221 180.899 78.0521C180.899 80.8821 182.889 82.0321 185.339 80.6121C187.789 79.1921 189.779 75.7521 189.779 72.9221C189.769 70.0921 187.789 68.9521 185.339 70.3621Z" fill="black"/>
<path d="M84.0492 162.11L132.259 134.28C134.649 132.9 136.589 134.02 136.589 136.78V183.07C136.589 185.83 134.649 189.19 132.259 190.57L84.0492 218.4C81.6592 219.78 79.7192 218.66 79.7192 215.9V169.61C79.7192 166.84 81.6592 163.49 84.0492 162.11Z" fill="#E0E0E0"/>
<path d="M153.109 122.241L254.119 63.9209C256.509 62.5409 258.449 63.6609 258.449 66.4209V112.711C258.449 115.471 256.509 118.831 254.119 120.211L153.109 178.531C150.719 179.911 148.779 178.791 148.779 176.031V129.741C148.779 126.981 150.719 123.621 153.109 122.241Z" fill="#E0E0E0"/>
<path d="M84.0492 232.461L160.689 188.211C163.079 186.831 165.019 187.811 165.019 190.401C165.019 192.991 163.079 196.211 160.689 197.591L84.0492 241.841C81.6592 243.221 79.7192 242.241 79.7192 239.651C79.7192 237.061 81.6592 233.841 84.0492 232.461Z" fill="#E0E0E0"/>
<path d="M84.0492 248.881L160.689 204.631C163.079 203.251 165.019 204.231 165.019 206.821C165.019 209.411 163.079 212.631 160.689 214.011L84.0492 258.261C81.6592 259.641 79.7192 258.661 79.7192 256.071C79.7192 253.481 81.6592 250.261 84.0492 248.881Z" fill="#E0E0E0"/>
<path d="M84.0492 265.291L160.689 221.041C163.079 219.661 165.019 220.641 165.019 223.231C165.019 225.821 163.079 229.041 160.689 230.421L84.0492 274.671C81.6592 276.051 79.7192 275.071 79.7192 272.481C79.7192 269.891 81.6592 266.671 84.0492 265.291Z" fill="#E0E0E0"/>
<g filter="url(#filter2_d_362_8125)">
<path d="M120.339 209.63C120.339 207.97 121.499 205.96 122.939 205.13L255.849 128.39C257.279 127.56 259.609 127.56 261.049 128.39L263.979 130.08C265.409 130.91 266.579 132.92 266.579 134.58V236.46C266.579 238.11 265.409 240.13 263.979 240.96L131.069 317.7C129.639 318.53 127.299 318.53 125.869 317.7L122.939 316.01C121.509 315.19 120.339 313.16 120.339 311.51V209.63Z" fill="#3CA0AE"/>
<path opacity="0.4" d="M121.099 207.07L128.469 211.32L265.809 132.02C265.339 131.21 264.689 130.5 263.979 130.08L261.039 128.4C259.609 127.56 257.279 127.56 255.849 128.4L122.939 205.13C122.219 205.55 121.569 206.26 121.099 207.07Z" fill="white"/>
<path opacity="0.1" d="M120.339 209.63V311.51C120.339 313.17 121.509 315.18 122.949 316.01L125.879 317.71C126.099 317.83 126.329 317.94 126.589 318.03C126.919 318.14 127.279 318.23 127.659 318.28C128.339 318.37 129.049 318.34 129.709 318.21C129.879 318.17 130.049 318.12 130.209 318.07C130.319 318.03 130.419 318 130.519 317.95C130.039 318.12 129.619 318.1 129.279 317.93C128.789 317.67 128.479 317.08 128.479 316.22V214.33C128.479 213.26 129.019 212.45 129.829 212.12L128.479 211.33L121.109 207.08C120.629 207.88 120.339 208.81 120.339 209.63Z" fill="black"/>
<path opacity="0.2" d="M128.479 211.33L190.029 234.33C194.419 235.96 199.349 234.34 201.899 230.42L211.779 215.28L266.299 131.75L213.749 215.85L266.57 236.52C266.56 237.36 266.25 238.29 265.76 239.11L213.609 216.08L202.119 234.46C199.479 238.68 194.139 240.32 189.599 238.31L181.419 234.7L129.279 317.92C128.789 317.66 128.479 317.07 128.479 316.21V314.51L181.169 234.59L128.479 211.33Z" fill="black"/>
</g>
<path d="M238.14 94.3702V328.27C238.14 331.03 240.08 332.15 242.47 330.77L347.55 270.1C349.94 268.72 351.88 265.36 351.88 262.6V28.7002C351.88 25.9402 349.94 24.8202 347.55 26.2002L242.47 86.8702C240.08 88.2502 238.14 91.6002 238.14 94.3702Z" fill="#FAFAFA" stroke="#E0E0E0" stroke-width="1.1698" stroke-miterlimit="10"/>
<path d="M244.229 98.7201C244.229 98.0701 244.729 97.2601 245.359 96.9001L257.329 89.9901C257.949 89.6301 258.459 89.8701 258.459 90.5101C258.459 91.1601 257.959 91.9701 257.329 92.3301L245.359 99.2401C244.739 99.6101 244.229 99.3701 244.229 98.7201Z" fill="#455A64"/>
<path d="M244.229 103.38C244.229 102.73 244.729 101.92 245.359 101.56L257.329 94.6503C257.949 94.2903 258.459 94.5303 258.459 95.1703C258.459 95.8203 257.959 96.6303 257.329 96.9903L245.359 103.9C244.739 104.26 244.229 104.03 244.229 103.38Z" fill="#455A64"/>
<path d="M244.229 108.04C244.229 107.39 244.729 106.58 245.359 106.22L257.329 99.3104C257.949 98.9504 258.459 99.1904 258.459 99.8304C258.459 100.48 257.959 101.29 257.329 101.65L245.359 108.56C244.739 108.92 244.229 108.69 244.229 108.04Z" fill="#455A64"/>
<path d="M295.01 94.1596C307.29 87.0696 317.24 92.8196 317.24 106.99C317.24 121.16 307.29 138.41 295.01 145.49C282.73 152.58 272.78 146.83 272.78 132.66C272.78 118.49 282.73 101.25 295.01 94.1596Z" fill="#455A64"/>
<path d="M294.86 105.32C298.84 103.02 302.07 104.88 302.07 109.48C302.07 114.08 298.84 119.67 294.86 121.97C290.88 124.27 287.65 122.41 287.65 117.81C287.64 113.21 290.87 107.62 294.86 105.32Z" fill="#3CA0AE"/>
<path d="M309.07 129.839C309.07 122.279 303.76 119.219 297.22 122.999L293.13 125.359C286.59 129.139 281.28 138.329 281.28 145.879V147.939C282.46 148.329 283.74 148.529 285.1 148.529C288.08 148.539 291.45 147.549 295.01 145.489C300.34 142.409 305.24 137.409 309.07 131.579V129.839Z" fill="#3CA0AE"/>
<path d="M274.95 166.59L315.08 143.42C316.28 142.73 317.25 143.22 317.25 144.52C317.25 145.82 316.28 147.42 315.08 148.12L274.95 171.29C273.75 171.98 272.78 171.49 272.78 170.19C272.78 168.89 273.75 167.28 274.95 166.59Z" fill="#3CA0AE"/>
<path d="M270.64 183.17L319.38 155C320.58 154.31 321.55 154.8 321.55 156.1C321.55 157.4 320.58 159 319.38 159.7L270.64 187.87C269.44 188.56 268.47 188.07 268.47 186.77C268.47 185.47 269.44 183.86 270.64 183.17Z" fill="#455A64"/>
<path d="M320.68 177.7L334.33 169.82C335.05 169.41 335.63 169.6 335.63 170.24C335.63 170.89 335.05 171.75 334.33 172.16L320.68 180.04C319.96 180.45 319.38 180.27 319.38 179.62C319.38 178.97 319.97 178.12 320.68 177.7Z" fill="#37474F"/>
<path d="M252.49 212.391L272.53 200.821C273.73 200.131 274.7 200.691 274.7 202.071V215.831C274.7 217.211 273.73 218.891 272.54 219.581L252.5 231.151C251.3 231.841 250.33 231.281 250.33 229.901V216.141C250.33 214.761 251.3 213.081 252.49 212.391Z" fill="#3CA0AE"/>
<path d="M255.69 214.311L269.34 206.431C270.06 206.021 270.64 206.211 270.64 206.851C270.64 207.501 270.06 208.361 269.34 208.771L255.69 216.651C254.97 217.061 254.39 216.881 254.39 216.231C254.39 215.591 254.97 214.731 255.69 214.311Z" fill="#FAFAFA"/>
<path d="M254.39 221.251V225.291C254.39 226.121 254.97 226.451 255.69 226.041L269.34 218.161C270.06 217.751 270.64 216.741 270.64 215.911V211.871C270.64 211.041 270.06 210.711 269.34 211.121L255.69 219.001C254.97 219.421 254.39 220.431 254.39 221.251Z" fill="#FAFAFA"/>
<path d="M284.99 193.631L305.03 182.061C306.23 181.371 307.2 181.931 307.2 183.311V197.071C307.2 198.451 306.23 200.131 305.03 200.821L284.99 212.391C283.79 213.081 282.82 212.521 282.82 211.141V197.381C282.82 196.001 283.79 194.321 284.99 193.631Z" fill="#3CA0AE"/>
<path d="M288.19 195.552L301.84 187.672C302.56 187.262 303.14 187.452 303.14 188.092C303.14 188.742 302.56 189.602 301.84 190.012L288.19 197.892C287.47 198.302 286.89 198.122 286.89 197.472C286.89 196.822 287.47 195.972 288.19 195.552Z" fill="#FAFAFA"/>
<path d="M286.89 202.491V206.531C286.89 207.361 287.47 207.691 288.19 207.281L301.84 199.401C302.56 198.991 303.14 197.981 303.14 197.151V193.111C303.14 192.281 302.56 191.951 301.84 192.361L288.19 200.241C287.47 200.661 286.89 201.661 286.89 202.491Z" fill="#FAFAFA"/>
<path d="M317.49 174.869L337.53 163.299C338.73 162.609 339.7 163.169 339.7 164.549V178.309C339.7 179.689 338.73 181.369 337.53 182.059L317.49 193.629C316.29 194.319 315.32 193.759 315.32 192.379V178.619C315.32 177.239 316.29 175.559 317.49 174.869Z" fill="#3CA0AE"/>
<path d="M320.68 176.788L334.33 168.908C335.05 168.498 335.63 168.678 335.63 169.328C335.63 169.978 335.05 170.838 334.33 171.248L320.68 179.128C319.96 179.538 319.38 179.348 319.38 178.708C319.38 178.068 319.97 177.198 320.68 176.788Z" fill="#FAFAFA"/>
<path d="M319.38 183.73V187.77C319.38 188.6 319.96 188.93 320.68 188.52L334.33 180.64C335.05 180.23 335.63 179.22 335.63 178.39V174.35C335.63 173.52 335.05 173.19 334.33 173.6L320.68 181.48C319.97 181.89 319.38 182.9 319.38 183.73Z" fill="#FAFAFA"/>
<path d="M254.66 243.969L335.36 197.379C337.75 195.999 339.69 196.979 339.69 199.569C339.69 202.159 337.75 205.379 335.36 206.759L254.66 253.349C252.27 254.729 250.33 253.749 250.33 251.159C250.33 248.569 252.27 245.349 254.66 243.969Z" fill="#E0E0E0"/>
<path d="M254.66 262.731L335.36 216.141C337.75 214.761 339.69 215.741 339.69 218.331C339.69 220.921 337.75 224.141 335.36 225.521L254.66 272.111C252.27 273.491 250.33 272.511 250.33 269.921C250.33 267.331 252.27 264.111 254.66 262.731Z" fill="#E0E0E0"/>
<path d="M280.93 271.02L309.09 254.76C310.29 254.07 311.26 254.63 311.26 256.01V265.08C311.26 266.46 310.29 268.14 309.09 268.83L280.919 285.09C279.719 285.78 278.75 285.22 278.75 283.84V274.77C278.76 273.39 279.73 271.71 280.93 271.02Z" fill="#3CA0AE"/>
<path d="M256.42 245.35C255.3 246 254.39 247.57 254.39 248.87C254.39 250.17 255.3 250.69 256.42 250.04C257.54 249.39 258.45 247.82 258.45 246.52C258.45 245.23 257.54 244.7 256.42 245.35Z" fill="#FAFAFA"/>
<path d="M262.86 241.63C261.74 242.28 260.83 243.85 260.83 245.15C260.83 246.45 261.74 246.97 262.86 246.32C263.98 245.67 264.89 244.1 264.89 242.8C264.89 241.51 263.98 240.98 262.86 241.63Z" fill="#FAFAFA"/>
<path d="M269.29 237.911C268.17 238.561 267.26 240.131 267.26 241.431C267.26 242.731 268.17 243.251 269.29 242.601C270.41 241.951 271.32 240.381 271.32 239.081C271.32 237.781 270.41 237.261 269.29 237.911Z" fill="#FAFAFA"/>
<path d="M275.73 234.19C274.61 234.84 273.7 236.41 273.7 237.71C273.7 239.01 274.61 239.53 275.73 238.88C276.85 238.23 277.76 236.66 277.76 235.36C277.76 234.07 276.85 233.54 275.73 234.19Z" fill="#FAFAFA"/>
<path d="M282.16 230.469C281.04 231.119 280.13 232.689 280.13 233.989C280.13 235.289 281.04 235.809 282.16 235.159C283.28 234.509 284.19 232.939 284.19 231.639C284.19 230.349 283.28 229.819 282.16 230.469Z" fill="#FAFAFA"/>
<path d="M288.59 226.751C287.47 227.401 286.56 228.971 286.56 230.271C286.56 231.571 287.47 232.091 288.59 231.441C289.71 230.791 290.62 229.221 290.62 227.921C290.62 226.621 289.72 226.101 288.59 226.751Z" fill="#FAFAFA"/>
<path d="M295.03 223.03C293.91 223.68 293 225.25 293 226.55C293 227.85 293.91 228.37 295.03 227.72C296.15 227.07 297.06 225.5 297.06 224.2C297.06 222.91 296.15 222.38 295.03 223.03Z" fill="#FAFAFA"/>
<path d="M256.42 264.129C255.3 264.779 254.39 266.349 254.39 267.649C254.39 268.949 255.3 269.469 256.42 268.819C257.54 268.169 258.45 266.599 258.45 265.299C258.45 263.999 257.54 263.489 256.42 264.129Z" fill="#FAFAFA"/>
<path d="M262.86 260.409C261.74 261.059 260.83 262.629 260.83 263.929C260.83 265.229 261.74 265.749 262.86 265.099C263.98 264.449 264.89 262.879 264.89 261.579C264.89 260.289 263.98 259.759 262.86 260.409Z" fill="#FAFAFA"/>
<path d="M269.29 256.69C268.17 257.34 267.26 258.91 267.26 260.21C267.26 261.51 268.17 262.03 269.29 261.38C270.41 260.73 271.32 259.16 271.32 257.86C271.32 256.57 270.41 256.04 269.29 256.69Z" fill="#FAFAFA"/>
<path d="M275.73 252.969C274.61 253.619 273.7 255.189 273.7 256.489C273.7 257.789 274.61 258.309 275.73 257.659C276.85 257.009 277.76 255.439 277.76 254.139C277.76 252.839 276.85 252.319 275.73 252.969Z" fill="#FAFAFA"/>
<path d="M282.16 249.249C281.04 249.899 280.13 251.469 280.13 252.769C280.13 254.069 281.04 254.589 282.16 253.939C283.28 253.289 284.19 251.719 284.19 250.419C284.19 249.129 283.28 248.599 282.16 249.249Z" fill="#FAFAFA"/>
<path d="M288.59 245.53C287.47 246.18 286.56 247.75 286.56 249.05C286.56 250.35 287.47 250.87 288.59 250.22C289.71 249.57 290.62 248 290.62 246.7C290.62 245.41 289.72 244.88 288.59 245.53Z" fill="#FAFAFA"/>
<path d="M295.03 241.809C293.91 242.459 293 244.029 293 245.329C293 246.629 293.91 247.149 295.03 246.499C296.15 245.849 297.06 244.279 297.06 242.979C297.06 241.689 296.15 241.159 295.03 241.809Z" fill="#FAFAFA"/>
<g filter="url(#filter3_d_362_8125)">
<path d="M385.279 284.092C381.769 284.092 378.449 283.232 375.429 281.492C368.219 277.332 364.089 268.622 364.089 257.602C364.089 238.222 376.409 215.922 392.139 206.842C400.609 201.952 409.019 201.422 415.819 205.352C423.029 209.512 427.159 218.222 427.159 229.242C427.159 248.622 414.839 270.922 399.109 280.002C394.389 282.722 389.689 284.092 385.279 284.092ZM405.939 216.712C403.419 216.712 400.749 217.982 399.109 218.922C387.689 225.512 378.039 243.232 378.039 257.602C378.039 263.422 379.669 267.832 382.399 269.412C385.509 271.212 389.829 269.252 392.129 267.922C403.549 261.332 413.199 243.612 413.199 229.242C413.199 223.422 411.569 219.012 408.839 217.432C407.949 216.912 406.949 216.712 405.939 216.712Z" fill="#455A64"/>
<path d="M415.699 232.342C415.699 221.452 408.839 217.432 408.839 217.432C411.569 219.012 413.199 223.422 413.199 229.242C413.199 243.612 403.549 261.322 392.129 267.922C389.829 269.252 385.509 271.212 382.399 269.412C382.399 269.412 388.189 273.002 396.179 268.642C407.769 262.322 415.699 246.712 415.699 232.342Z" fill="#37474F"/>
<path d="M404.699 96.251C404.699 92.271 401.469 89.041 397.489 89.041C393.509 89.041 390.279 92.271 390.279 96.251C390.279 96.261 390.279 96.261 390.279 96.271V210.981C390.279 212.051 390.979 213.111 392.389 213.921C395.209 215.551 399.769 215.551 402.589 213.921C403.999 213.111 404.699 212.041 404.699 210.981V96.271C404.699 96.271 404.699 96.261 404.699 96.251Z" fill="#37474F"/>
<path d="M398.939 121.89C398.939 119.23 397.079 116 394.769 114.68C393.599 114 392.549 113.96 391.789 114.42V114.41L373.989 124.66L373.559 124.92C373.499 124.95 373.439 124.98 373.389 125.02C373.079 125.23 372.799 125.46 372.539 125.72C371.459 126.79 370.799 128.27 370.799 129.9C370.799 132.14 372.039 134.08 373.869 135.09C374.709 135.54 375.659 135.8 376.689 135.8C377.709 135.8 378.669 135.54 379.499 135.09C379.609 135.03 379.729 134.96 379.839 134.9L397.749 124.58C398.479 124.13 398.939 123.2 398.939 121.89Z" fill="#455A64"/>
<path d="M398.939 150.611C398.939 147.951 397.079 144.721 394.769 143.401C393.599 142.721 392.549 142.681 391.789 143.141V143.131L370.929 155.111L370.499 155.371C370.439 155.401 370.379 155.431 370.329 155.471C370.019 155.681 369.739 155.911 369.479 156.171C368.399 157.241 367.739 158.721 367.739 160.351C367.739 162.591 368.979 164.531 370.809 165.541C371.649 165.991 372.599 166.251 373.629 166.251C374.649 166.251 375.609 165.991 376.439 165.541C376.549 165.481 376.669 165.411 376.779 165.351L397.749 153.311C398.479 152.861 398.939 151.931 398.939 150.611Z" fill="#455A64"/>
</g>
<defs>
<filter id="filter0_d_362_8125" x="73.7793" y="247.32" width="380.843" height="107.57" filterUnits="userSpaceOnUse" color-interpolation-filters="sRGB">
<feFlood flood-opacity="0" result="BackgroundImageFix"/>
<feColorMatrix in="SourceAlpha" type="matrix" values="0 0 0 0 0 0 0 0 0 0 0 0 0 0 0 0 0 0 127 0" result="hardAlpha"/>
<feOffset dx="6" dy="8"/>
<feGaussianBlur stdDeviation="8"/>
<feComposite in2="hardAlpha" operator="out"/>
<feColorMatrix type="matrix" values="0 0 0 0 0 0 0 0 0 0 0 0 0 0 0 0 0 0 0.25 0"/>
<feBlend mode="normal" in2="BackgroundImageFix" result="effect1_dropShadow_362_8125"/>
<feBlend mode="normal" in="SourceGraphic" in2="effect1_dropShadow_362_8125" result="shape"/>
</filter>
<filter id="filter1_d_362_8125" x="0" y="167.762" width="494.216" height="151.978" filterUnits="userSpaceOnUse" color-interpolation-filters="sRGB">
<feFlood flood-opacity="0" result="BackgroundImageFix"/>
<feColorMatrix in="SourceAlpha" type="matrix" values="0 0 0 0 0 0 0 0 0 0 0 0 0 0 0 0 0 0 127 0" result="hardAlpha"/>
<feOffset dx="6" dy="8"/>
<feGaussianBlur stdDeviation="8"/>
<feComposite in2="hardAlpha" operator="out"/>
<feColorMatrix type="matrix" values="0 0 0 0 0 0 0 0 0 0 0 0 0 0 0 0 0 0 0.25 0"/>
<feBlend mode="normal" in2="BackgroundImageFix" result="effect1_dropShadow_362_8125"/>
<feBlend mode="normal" in="SourceGraphic" in2="effect1_dropShadow_362_8125" result="shape"/>
</filter>
<filter id="filter2_d_362_8125" x="110.339" y="119.768" width="178.24" height="222.564" filterUnits="userSpaceOnUse" color-interpolation-filters="sRGB">
<feFlood flood-opacity="0" result="BackgroundImageFix"/>
<feColorMatrix in="SourceAlpha" type="matrix" values="0 0 0 0 0 0 0 0 0 0 0 0 0 0 0 0 0 0 127 0" result="hardAlpha"/>
<feOffset dx="6" dy="8"/>
<feGaussianBlur stdDeviation="8"/>
<feComposite in2="hardAlpha" operator="out"/>
<feColorMatrix type="matrix" values="0 0 0 0 0 0 0 0 0 0 0 0 0 0 0 0 0 0 0.25 0"/>
<feBlend mode="normal" in2="BackgroundImageFix" result="effect1_dropShadow_362_8125"/>
<feBlend mode="normal" in="SourceGraphic" in2="effect1_dropShadow_362_8125" result="shape"/>
</filter>
<filter id="filter3_d_362_8125" x="354.089" y="81.041" width="95.0698" height="227.051" filterUnits="userSpaceOnUse" color-interpolation-filters="sRGB">
<feFlood flood-opacity="0" result="BackgroundImageFix"/>
<feColorMatrix in="SourceAlpha" type="matrix" values="0 0 0 0 0 0 0 0 0 0 0 0 0 0 0 0 0 0 127 0" result="hardAlpha"/>
<feOffset dx="6" dy="8"/>
<feGaussianBlur stdDeviation="8"/>
<feComposite in2="hardAlpha" operator="out"/>
<feColorMatrix type="matrix" values="0 0 0 0 0 0 0 0 0 0 0 0 0 0 0 0 0 0 0.25 0"/>
<feBlend mode="normal" in2="BackgroundImageFix" result="effect1_dropShadow_362_8125"/>
<feBlend mode="normal" in="SourceGraphic" in2="effect1_dropShadow_362_8125" result="shape"/>
</filter>
</defs>
</svg>
