<svg width="36" height="36" viewBox="0 0 36 36" fill="none" xmlns="http://www.w3.org/2000/svg">
<path d="M21.8001 27.134C21.3974 28.247 25.8471 23.2333 24.6929 23.8325L4.96114 0.812012C2.87089 4.29576 3.41989 8.75376 6.29239 11.6263L21.8001 27.134Z" fill="#28BCBE" fill-opacity="0.6"/>
<path d="M21 29.25C21 25.9418 23.6918 23.25 27 23.25C30.3083 23.25 33 25.9418 33 29.25C33 32.5583 30.3083 35.25 27 35.25C23.6918 35.25 21 32.5583 21 29.25ZM22.5 29.25C22.5 31.7318 24.5183 33.75 27 33.75C29.4818 33.75 31.5 31.7318 31.5 29.25C31.5 26.7683 29.4818 24.75 27 24.75C24.5183 24.75 22.5 26.7683 22.5 29.25Z" fill="#3F8081"/>
<path d="M19.7452 18.0605L16.4204 21.7543L19.5907 24.9245L22.8419 21.6733L19.7452 18.0605Z" fill="#33D7D9"/>
<path d="M29.7075 11.6263C32.58 8.75376 33.129 4.29576 31.0388 0.812012L11.307 23.8325C10.1528 23.2333 14.6018 28.247 14.1998 27.134L29.7075 11.6263Z" fill="#28BCBE" fill-opacity="0.6"/>
<path d="M9 35.25C5.69175 35.25 3 32.5583 3 29.25C3 25.9418 5.69175 23.25 9 23.25C12.3083 23.25 15 25.9418 15 29.25C15 32.5583 12.3083 35.25 9 35.25ZM9 24.75C6.51825 24.75 4.5 26.7683 4.5 29.25C4.5 31.7318 6.51825 33.75 9 33.75C11.4818 33.75 13.5 31.7318 13.5 29.25C13.5 26.7683 11.4818 24.75 9 24.75Z" fill="#3F8081"/>
<path d="M18 21C18.8284 21 19.5 20.3284 19.5 19.5C19.5 18.6716 18.8284 18 18 18C17.1716 18 16.5 18.6716 16.5 19.5C16.5 20.3284 17.1716 21 18 21Z" fill="#3F8081"/>
</svg>
