<svg width="37" height="41" viewBox="0 0 37 41" fill="none" xmlns="http://www.w3.org/2000/svg">
<path d="M10.2464 31.6159H10.2464L10.2462 31.61L9.75449 16.9522C9.75457 16.9491 9.7547 16.9445 9.75493 16.9386C9.75542 16.9261 9.7563 16.9087 9.75783 16.8867C9.76088 16.8426 9.76644 16.781 9.77636 16.7038C9.7962 16.5494 9.83335 16.3339 9.90222 16.073C10.0399 15.5515 10.3041 14.8501 10.8097 14.0923C11.814 12.5873 13.8057 10.8081 17.788 9.80369C17.7879 9.80372 17.7886 9.80359 17.79 9.80329C17.8132 9.79841 18.0427 9.75021 18.4121 9.71281C18.8021 9.67333 19.3367 9.64711 19.9359 9.69405C21.1419 9.78854 22.5541 10.1739 23.6077 11.2797C24.7233 12.4589 25.295 14.2732 25.1814 16.7946L25.1809 16.8059V16.8171C25.1809 16.8169 25.1809 16.8172 25.1808 16.8179C25.1805 16.8297 25.1766 16.9686 25.1419 17.2051C25.1054 17.4533 25.0356 17.8046 24.9025 18.2243C24.6367 19.063 24.1187 20.1741 23.1084 21.2844L23.1063 21.2866C22.5607 21.8936 22.2124 22.7349 21.9843 23.6049C21.7542 24.4829 21.6346 25.4374 21.5762 26.3123C21.5178 27.1892 21.5201 27.9991 21.5384 28.5926C21.5475 28.8896 21.5608 29.1339 21.5726 29.3071C21.5785 29.3934 21.5841 29.4634 21.5889 29.5141C21.5912 29.539 21.5936 29.562 21.5959 29.5811C21.597 29.59 21.5986 29.6025 21.6008 29.6156C21.601 29.6167 21.6012 29.6179 21.6014 29.6193C22.2173 34.805 20.9901 37.3138 19.9648 38.4646L19.9645 38.465C19.1196 39.4155 18.0594 39.8907 16.8467 39.8907C13.8542 39.8907 10.3591 36.8248 10.2464 31.6159Z" stroke="#28BCBE"/>
<path d="M23.2206 6.92824C22.6396 6.92824 22.0791 6.61723 21.6468 6.03916C21.2141 5.46051 20.9321 4.63675 20.9321 3.7024C20.9321 2.78092 21.2135 1.96315 21.6462 1.38698C22.0786 0.811275 22.6394 0.5 23.2206 0.5C23.7888 0.5 24.3504 0.809982 24.7871 1.38809C25.2232 1.96534 25.5092 2.78312 25.5092 3.7024C25.5092 4.63457 25.2226 5.45833 24.7865 6.03805C24.3499 6.61852 23.7886 6.92824 23.2206 6.92824Z" stroke="#28BCBE"/>
<path d="M16.0796 4.38668L16.0797 4.38668L16.0791 4.38074C15.9522 3.06982 16.6522 2.19935 17.3804 2.13866L17.3804 2.13874L17.3897 2.1378C17.7764 2.09834 18.1552 2.25776 18.4712 2.60611C18.7907 2.95823 19.0294 3.49133 19.0908 4.12557L19.0908 4.12557L19.0913 4.13067C19.1508 4.68601 19.0298 5.23325 18.7831 5.65081L18.7831 5.65081L18.7816 5.65324C18.5245 6.09412 18.15 6.3288 17.8069 6.36593H17.8069H17.8066H17.8062H17.8059H17.8056H17.8053H17.805H17.8047H17.8044H17.804H17.8037H17.8034H17.8031H17.8028H17.8025H17.8021H17.8018H17.8015H17.8012H17.8009H17.8006H17.8002H17.7999H17.7996H17.7993H17.799H17.7986H17.7983H17.798H17.7977H17.7974H17.797H17.7967H17.7964H17.7961H17.7957H17.7954H17.7951H17.7948H17.7945H17.7941H17.7938H17.7935H17.7932H17.7928H17.7925H17.7922H17.7919H17.7915H17.7912H17.7909H17.7905H17.7902H17.7899H17.7896H17.7892H17.7889H17.7886H17.7882H17.7879H17.7876H17.7873H17.7869H17.7866H17.7863H17.7859H17.7856H17.7853H17.7849H17.7846H17.7843H17.7839H17.7836H17.7833H17.783H17.7826H17.7823H17.782H17.7816H17.7813H17.781H17.7806H17.7803H17.7799H17.7796H17.7793H17.7789H17.7786H17.7783H17.7779H17.7776H17.7773H17.7769H17.7766H17.7763H17.7759H17.7756H17.7752H17.7749H17.7746H17.7742H17.7739H17.7736H17.7732H17.7729H17.7725H17.7722H17.7719H17.7715H17.7712H17.7709H17.7705H17.7702H17.7698H17.7695H17.7692H17.7688H17.7685H17.7681H17.7678H17.7675H17.7671H17.7668H17.7664H17.7661H17.7658H17.7654H17.7651H17.7647H17.7644H17.764H17.7637H17.7634H17.763H17.7627H17.7623H17.762H17.7617H17.7613H17.761H17.7606H17.7603H17.7599H17.7596H17.7593H17.7589H17.7586H17.7582H17.7579H17.7576H17.7572H17.7569H17.7565H17.7562H17.7558H17.7555H17.7552H17.7548H17.7545H17.7541H17.7538H17.7534H17.7531H17.7528H17.7524H17.7521H17.7517H17.7514H17.751H17.7507H17.7503H17.75H17.7497H17.7493H17.749H17.7486H17.7483H17.7479H17.7476H17.7473H17.7469H17.7466H17.7462H17.7459H17.7455H17.7452H17.7449H17.7445H17.7442H17.7438H17.7435H17.7431H17.7428H17.7425H17.7421H17.7418H17.7414H17.7411H17.7407H17.7404H17.7401H17.7397H17.7394H17.739H17.7387H17.7383H17.738H17.7377H17.7373H17.737H17.7366H17.7363H17.736H17.7356H17.7353H17.7349H17.7346H17.7342H17.7339H17.7336H17.7332H17.7329H17.7325H17.7322H17.7319H17.7315H17.7312H17.7308H17.7305H17.7302H17.7298H17.7295H17.7291H17.7288H17.7285H17.7281H17.7278H17.7274H17.7271H17.7268H17.7264H17.7261H17.7257H17.7254H17.7251H17.7247H17.7244H17.7241H17.7237H17.7234H17.723H17.7227H17.7224H17.722H17.7217H17.7214H17.721H17.7207H17.7203H17.72H17.7197H17.7193H17.719H17.7187H17.7183H17.718H17.7177H17.7173H17.717H17.7167H17.7163H17.716H17.7157H17.7153H17.715H17.7147H17.7143H17.714H17.7137H17.7133H17.713H17.7127H17.7123H17.712H17.7117H17.7114H17.711H17.7107H17.7104H17.71H17.7097H17.7094H17.709H17.7087H17.7084H17.7081H17.7077H17.7074H17.7071H17.7068H17.7064H17.7061H17.7058H17.7054H17.7051H17.7048H17.7045H17.7041H17.7038H17.7035H17.7032H17.7028H17.7025H17.7022H17.7019H17.7016H17.7012H17.7009H17.7006H17.7003H17.6999H17.6996H17.6993H17.699H17.6987H17.6983H17.698H17.6977H17.6974H17.6971H17.6968H17.6964H17.6961H17.6958H17.6955H17.6952H17.6949H17.6945H17.6942H17.6939H17.6936H17.6933H17.693H17.6927H17.6923H17.692H17.6917H17.6914H17.6911H17.6908H17.6905H17.6902H17.6898H17.6895H17.6892H17.6889H17.6886H17.6883H17.688H17.6877H17.6874H17.6871H17.6868H17.6865H17.6862H17.6858H17.6855H17.6852H17.6849H17.6846H17.6843H17.684H17.6837H17.6834H17.6831H17.6828H17.6825H17.6822H17.6819H17.6816H17.6813H17.681H17.6807H17.6804H17.6801H17.6798H17.6795H17.6792H17.6789H17.6786H17.6784H17.6781H17.6778H17.6775H17.6772H17.6769H17.6766H17.6763H17.676H17.6757H17.6754H17.6751H17.6749H17.6746H17.6743H17.674H17.6737H17.6734H17.6731H17.6728H17.6726H17.6723H17.672H17.6717H17.6714H17.6711H17.6709H17.6706H17.6703H17.67H17.6697H17.6695H17.6692H17.6689H17.6686H17.6683H17.6681H17.6678H17.6675H17.6672H17.667C16.9719 6.36593 16.1844 5.62335 16.0796 4.38668Z" stroke="#28BCBE"/>
<path d="M12.3053 6.31909L12.3053 6.31908L12.3028 6.31394C12.1177 5.94378 12.0605 5.51197 12.1148 5.14121C12.1891 4.72223 12.3922 4.47168 12.621 4.36996L12.6314 4.36535L12.6415 4.36027C12.7553 4.3034 12.889 4.27246 13.0272 4.27246C13.4879 4.27246 14.065 4.62751 14.4044 5.32484C14.594 5.72405 14.6494 6.15831 14.596 6.52589C14.5259 6.89916 14.3106 7.17634 14.0455 7.30884L14.0331 7.31505L14.0211 7.32194C13.9753 7.34812 13.8751 7.37322 13.6833 7.37322C13.2018 7.37322 12.6462 7.02103 12.3053 6.31909Z" stroke="#28BCBE"/>
<path d="M9.45621 7.0345L9.46191 7.03032L9.4675 7.02598C9.56518 6.95 9.72658 6.89697 9.93381 6.89697C10.332 6.89697 10.8223 7.14756 11.1427 7.59987L11.1427 7.59988L11.1453 7.6036C11.4026 7.95977 11.5193 8.3048 11.5193 8.6231C11.5193 8.97282 11.3719 9.25558 11.17 9.40851C11.031 9.49881 10.8718 9.55251 10.7071 9.55251C10.3129 9.55251 9.82058 9.30564 9.47347 8.8243C8.92685 8.05396 9.06335 7.3226 9.45621 7.0345Z" stroke="#28BCBE"/>
<path d="M7.05602 10.6852L7.05614 10.6854L7.06626 10.6763C7.1893 10.5655 7.36526 10.5 7.5988 10.5C7.96557 10.5 8.39677 10.6958 8.74191 11.0982C9.31926 11.7755 9.23311 12.5152 8.89144 12.8063L8.89137 12.8062L8.88349 12.8132C8.77004 12.914 8.58585 12.9915 8.37209 12.9915C8.0158 12.9915 7.58103 12.7821 7.22464 12.3882C6.62432 11.6843 6.7191 10.9722 7.05602 10.6852Z" stroke="#28BCBE"/>
<path fill-rule="evenodd" clip-rule="evenodd" d="M19.143 18.0121C17.6199 18.0121 16.3779 16.7702 16.3779 15.247C16.3779 13.7239 17.6199 12.4819 19.143 12.4819C20.6662 12.4819 21.9081 13.7239 21.9081 15.247C21.9081 16.7702 20.6662 18.0121 19.143 18.0121Z" fill="#C6EDF7"/>
<path fill-rule="evenodd" clip-rule="evenodd" d="M14.0815 25.5809C12.5584 25.5809 11.3164 24.339 11.3164 22.7924C11.3164 21.2693 12.5584 20.0273 14.0815 20.0273C15.6046 20.0273 16.8466 21.2693 16.8466 22.7924C16.8466 24.339 15.6046 25.5809 14.0815 25.5809Z" fill="#C6EDF7"/>
<path fill-rule="evenodd" clip-rule="evenodd" d="M17.081 35.329C15.5579 35.329 14.3159 34.0871 14.3159 32.5639C14.3159 31.0408 15.5579 29.7988 17.081 29.7988C18.6041 29.7988 19.8461 31.0408 19.8461 32.5639C19.8461 34.0871 18.6041 35.329 17.081 35.329Z" fill="#C6EDF7"/>
<path fill-rule="evenodd" clip-rule="evenodd" d="M19.143 15.7159C18.9087 15.7159 18.6978 15.5284 18.6743 15.2941C18.6509 15.0363 18.8384 14.802 19.0961 14.7786L32.5935 13.396C32.8513 13.3726 33.0856 13.5601 33.109 13.8178C33.1325 14.0756 32.945 14.3099 32.6872 14.3333L19.1899 15.7159C19.1899 15.7159 19.1664 15.7159 19.143 15.7159Z" fill="#476A6B"/>
<path fill-rule="evenodd" clip-rule="evenodd" d="M34.3746 15.9034C33.1561 15.9034 32.1484 14.9193 32.1484 13.7007C32.1484 12.4822 33.1561 11.498 34.3746 11.498C35.5696 11.498 36.5773 12.4822 36.5773 13.7007C36.5773 14.9193 35.5696 15.9034 34.3746 15.9034Z" fill="#36D3D5"/>
<path fill-rule="evenodd" clip-rule="evenodd" d="M16.2846 32.7284C16.0971 32.6113 16.0034 32.3535 16.1205 32.1426C16.2143 31.9083 16.4954 31.7911 16.7298 31.9083L29.0321 37.6493C29.243 37.7431 29.3601 38.0243 29.243 38.2586C29.1258 38.4929 28.868 38.5867 28.6337 38.4929L16.3314 32.7519C16.3314 32.7519 16.308 32.7519 16.2846 32.7284Z" fill="#476A6B"/>
<path fill-rule="evenodd" clip-rule="evenodd" d="M29.2664 40.6955C28.212 40.0629 27.8839 38.7037 28.4932 37.6727C29.1258 36.6182 30.485 36.2902 31.516 36.8994C32.5705 37.5321 32.922 38.8912 32.2893 39.9223C31.68 40.9767 30.3209 41.3048 29.2664 40.6955Z" fill="#36D3D5"/>
<path fill-rule="evenodd" clip-rule="evenodd" d="M14.3628 22.5584C14.5737 22.6521 14.6908 22.9099 14.5971 23.1442C14.5268 23.3785 14.2456 23.5191 14.0113 23.4254L4.16943 19.9105C4.16943 19.887 4.19287 19.8636 4.19287 19.8402C4.33346 19.5824 4.40376 19.3012 4.40376 19.02L14.3159 22.535C14.3393 22.535 14.3628 22.5584 14.3628 22.5584Z" fill="#476A6B"/>
<path fill-rule="evenodd" clip-rule="evenodd" d="M3.16188 16.911C4.23979 17.4265 4.70845 18.7388 4.19293 19.8401C3.6774 20.9415 2.36516 21.4101 1.26381 20.8946C0.162466 20.3791 -0.306193 19.0434 0.209332 17.9655C0.724856 16.8641 2.06053 16.3955 3.16188 16.911Z" fill="#36D3D5"/>
</svg>
